<svg width="750" height="800" viewBox="0 0 750 800" fill="none" xmlns="http://www.w3.org/2000/svg">
<path d="M50 100H300C327.613 100 350 77.6125 350 50C350 22.3844 327.613 0 300 0H50C22.3875 0 0 22.3844 0 50C0 77.6125 22.3875 100 50 100Z" fill="#1DB954"/>
<path d="M50 250H300C327.613 250 350 227.613 350 200C350 172.384 327.613 150 300 150H50C22.3875 150 0 172.384 0 200C0 227.613 22.3875 250 50 250Z" fill="#1DB954"/>
<path d="M350 350C350 322.384 327.613 300 300 300H50C22.3875 300 0 322.384 0 350C0 377.613 22.3875 400 50 400H300C327.613 400 350 377.613 350 350Z" fill="#1DB954"/>
<path d="M617.7 118.616C589.13 96.5703 550 66.3703 550 50C550 22.3875 527.613 0 500 0C472.387 0 450 22.3875 450 50V508.719C434.339 503.173 417.559 500 400 500C317.156 500 250 567.156 250 650C250 732.844 317.156 800 400 800C482.844 800 550 732.844 550 650V192.645C552.209 194.355 554.406 196.087 556.609 197.791C613.023 241.309 650 272.913 650 313.892C650 377.589 616.119 413.136 615.148 414.148C595.348 433.398 594.897 465.052 614.147 484.852C623.948 494.934 636.967 500 650.005 500C662.559 500 675.133 495.3 684.85 485.852C691.522 479.37 749.998 419.47 749.998 313.891C750 220.703 676.642 164.098 617.7 118.616Z" fill="#1DB954"/>
</svg>
