<svg width="95" height="96" viewBox="0 0 95 96" fill="none" xmlns="http://www.w3.org/2000/svg">
<path d="M0 77.6C0 82.5333 1.73333 86.7333 5.2 90.2C8.66667 93.6666 12.8667 95.3999 17.8 95.3999H77C81.8667 95.3999 86.0333 93.6666 89.5 90.2C92.9667 86.7333 94.7 82.5333 94.7 77.6V52L82.9 61.8999V77.6C82.9 79.2666 82.3333 80.6666 81.2 81.7999C80.0667 82.9333 78.6667 83.5333 77 83.6H17.8C16.1333 83.6 14.7333 82.9999 13.6 81.7999C12.4667 80.5999 11.9 79.2 11.9 77.6V18.4C11.9 16.8 12.4667 15.4 13.6 14.2C14.7333 13 16.1333 12.4333 17.8 12.5H47.4V0.699951H17.8C12.8667 0.699951 8.66667 2.43328 5.2 5.89995C1.73333 9.36662 0 13.5333 0 18.4L0 77.6ZM17.8 59.9C17.8 65.6333 18.9333 71.1333 21.2 76.3999C22.2667 70.2666 24.6 64.6999 28.2 59.6999C31.8 54.6999 36.2667 50.6666 41.6 47.5999C46.9333 44.5333 52.8 42.8 59.2 42.4V59.9L94.7 30.3L59.2 0.699951V18.4C53.6 18.4 48.2333 19.5 43.1 21.7C37.9667 23.9 33.5667 26.8666 29.9 30.6C26.2333 34.3333 23.2667 38.7333 21 43.7999C18.7333 48.8666 17.6667 54.2333 17.8 59.9Z" fill="#1DB954"/>
</svg>
